# xmcd
#
# Track frame offsets:
#	150
#	10740
#	21804
#	32841
#	42679
#	53618
#	63841
#	74883
#	87853
#	100614
#	112640
#	123552
#	136705
#	147685
#	157630
#	169422
#	180819
#	191325
#	201263
#	213947
#	223055
#	233228
#	245601
#	256916
#	267590
#
# Disc length: 3729 seconds
# Revision: 0
# Processed by: cddbd v1.5.2PL0 Copyright (c) Steve Scherf et al.
# Submitted via: dBpowerAMP V12.0
#
DISCID=610e8f19
DTITLE=Various Artist - New Orleans R and B (Crescent City Classics) [disc 2]
DYEAR=2006
DGENRE=Rhythm and Blues
TTITLE0=Tommy Ridgely - Looped
TTITLE1=Payl Gayten Orchestra - It Ain't Nothin' Happenin'
TTITLE2=Smiley Lewis - The Bells Are Ringing
TTITLE3=Bobby Mitchell - 4 X 11 =44
TTITLE4=Sugraboy Crawford - Jock a Mo
TTITLE5=Slim Saunders - Lets Have Some Fun (Honey)
TTITLE6=Sugarboy Crawford - Overboard
TTITLE7=Clarence Garlow and His Band - New Bon Ton Roulay
TTITLE8=Ray Charles With Edgar Blanchard's Band - Fellin' Sad
TTITLE9=Big Joe Turner - Honey Hush
TTITLE10=Professor Longhair - Tipitina
TTITLE11=Sha Weez - No One to Love Me
TTITLE12=Fats Mathews - I'm Thankful
TTITLE13=Smiley Lewis - Caldonia's Party
TTITLE14=Big Joe Turner - Crawdad Hole
TTITLE15=Fats Domino - Going to the River
TTITLE16=Bobby Mitchell - Rack 'Em Back
TTITLE17=Shirley and Lee - Why Did I
TTITLE18=Ray Charles With Edgar Blanchard's Band - I Wonder Who
TTITLE19=Paul Gayten Orchestra - Cow Cow Blues
TTITLE20=Billy Tate - Single Life
TTITLE21=The Spiders - I Didn't Want to Do It
TTITLE22=The Spiders - I'm Slippin' in
TTITLE23=The Bees - Toy Bell
TTITLE24=The Hawks - I-Yi
EXTD=
EXTT0=
EXTT1=
EXTT2=
EXTT3=
EXTT4=
EXTT5=
EXTT6=
EXTT7=
EXTT8=
EXTT9=
EXTT10=
EXTT11=
EXTT12=
EXTT13=
EXTT14=
EXTT15=
EXTT16=
EXTT17=
EXTT18=
EXTT19=
EXTT20=
EXTT21=
EXTT22=
EXTT23=
EXTT24=
PLAYORDER=
